:FULLY-SPECIFIED
:FORCE-ALL-JOINTS-BE-3DOF
:DEGREES
17
root 7.6123 15.9156 -34.6104 7.03081 -4.16666 -5.49477
lfemur -40.3358 -0.537977 -7.59553
ltibia 20.2098 0 0
lfoot -15.4197 15.2454 0
ltoes -11.9042 0 0
rfemur 5.26973 6.50796 31.3141
rtibia 11.3628 0 0
rfoot -19.2683 -1.32208 0
rtoes -6.92164 0 0
lowerback -6.16634 1.19088 2.18178
upperback -1.20129 1.36681 2.93651
thorax 2.20096 0.688512 1.9116
lowerneck -19.9125 -4.91539 -11.7311
upperneck 15.8488 -6.46289 15.0283
head 9.17491 -2.2111 6.29242
lclavicle 2.82647e-15 -7.22251e-15 0
lhumerus -39.7599 -8.0736 89.7894
lradius 29.1614 0 0
lwrist 7.03399 0 0
lhand -7.77585 -22.9708 0
lfingers 7.12502 0 0
lthumb 18.1245 6.20462 0
rclavicle 2.82647e-15 -7.22251e-15 0
rhumerus -41.0235 19.2051 -88.3106
rradius 62.3334 0 0
rwrist -34.9291 0 0
rhand -31.3509 -29.3996 0
rfingers 7.12502 0 0
rthumb -4.62201 -59.3292 0
18
root 7.62458 15.9051 -34.4699 7.07636 -4.60928 -5.79389
lfemur -40.2998 -1.09316 -6.63787
ltibia 19.4499 0 0
lfoot -15.7251 16.2404 0
ltoes -11.2338 0 0
rfemur 6.26911 6.61229 31.5234
rtibia 10.4306 0 0
rfoot -18.9367 -1.14365 0
rtoes -6.87826 0 0
lowerback -6.27168 1.30257 2.45001
upperback -1.21439 1.49276 3.0059
thorax 2.24791 0.752702 1.84496
lowerneck -19.947 -4.90228 -11.7617
upperneck 15.9073 -6.42598 14.9697
head 9.19366 -2.1997 6.28373
lclavicle 4.10304e-15 -7.08998e-15 0
lhumerus -39.9843 -8.3813 89.9661
lradius 29.0047 0 0
lwrist 7.02769 0 0
lhand -7.69827 -23.1335 0
lfingers 7.12502 0 0
lthumb 18.1992 6.03503 0
rclavicle 4.10304e-15 -7.08998e-15 0
rhumerus -41.2959 19.3007 -88.6818
rradius 62.5355 0 0
rwrist -34.9195 0 0
rhand -31.3876 -29.3239 0
rfingers 7.12502 0 0
rthumb -4.65739 -59.2526 0
19
root 7.63687 15.8945 -34.3294 7.12192 -5.0519 -6.09301
lfemur -40.2639 -1.64834 -5.6802
ltibia 18.69 0 0
lfoot -16.0304 17.2354 0
ltoes -10.5633 0 0
rfemur 7.2685 6.71662 31.7327
rtibia 9.49848 0 0
rfoot -18.6051 -0.965217 0
rtoes -6.83488 0 0
lowerback -6.37702 1.41426 2.71823
upperback -1.22749 1.61871 3.07529
thorax 2.29486 0.816891 1.77833
lowerneck -19.9815 -4.88918 -11.7923
upperneck 15.9658 -6.38906 14.9111
head 9.21241 -2.18829 6.27503
lclavicle 5.37961e-15 -6.95746e-15 0
lhumerus -40.2088 -8.689 90.1427
lradius 28.8481 0 0
lwrist 7.0214 0 0
lhand -7.6207 -23.2962 0
lfingers 7.12502 0 0
lthumb 18.2738 5.86544 0
rclavicle 5.37961e-15 -6.95746e-15 0
rhumerus -41.5682 19.3963 -89.053
rradius 62.7376 0 0
rwrist -34.9099 0 0
rhand -31.4242 -29.2481 0
rfingers 7.12502 0 0
rthumb -4.69277 -59.1761 0
20
root 7.65682 15.8804 -34.182 7.0765 -5.53615 -6.22294
lfemur -40.1569 -1.29684 -5.60242
ltibia 18.7344 0 0
lfoot -15.9616 17.1995 0
ltoes -10.8881 0 0
rfemur 8.65365 6.961 31.7459
rtibia 7.9154 0 0
rfoot -17.6155 -1.12976 0
rtoes -8.15017 0 0
lowerback -6.39876 1.52137 2.9059
upperback -1.19057 1.74587 3.04796
thorax 2.35257 0.882108 1.65799
lowerneck -19.9459 -4.85743 -11.7134
upperneck 15.928 -6.3698 14.9208
head 9.18816 -2.17525 6.26636
lclavicle 3.26131e-15 -1.04031e-14 0
lhumerus -40.4721 -8.82678 90.1677
lradius 28.7279 0 0
lwrist 6.80057 0 0
lhand -7.80323 -23.1521 0
lfingers 7.12502 0 0
lthumb 18.0982 6.02546 0
rclavicle 3.26131e-15 -1.04031e-14 0
rhumerus -41.7621 19.4408 -89.4699
rradius 62.6996 0 0
rwrist -34.7001 0 0
rhand -31.2448 -29.4527 0
rfingers 7.12502 0 0
rthumb -4.51954 -59.3841 0
21
root 7.67676 15.8664 -34.0345 7.03108 -6.0204 -6.35287
lfemur -40.0499 -0.945332 -5.52463
ltibia 18.7787 0 0
lfoot -15.8927 17.1636 0
ltoes -11.2129 0 0
rfemur 10.0388 7.20538 31.7592
rtibia 6.33232 0 0
rfoot -16.626 -1.2943 0
rtoes -9.46545 0 0
lowerback -6.4205 1.62848 3.09357
upperback -1.15365 1.87302 3.02063
thorax 2.41028 0.947324 1.53764
lowerneck -19.9102 -4.82567 -11.6345
upperneck 15.8902 -6.35054 14.9306
head 9.16391 -2.16221 6.25769
lclavicle 1.14301e-15 -1.38487e-14 0
lhumerus -40.7354 -8.96456 90.1927
lradius 28.6078 0 0
lwrist 6.57974 0 0
lhand -7.98575 -23.008 0
lfingers 7.12502 0 0
lthumb 17.9225 6.18547 0
rclavicle 1.14301e-15 -1.38487e-14 0
rhumerus -41.956 19.4854 -89.8867
rradius 62.6616 0 0
rwrist -34.4903 0 0
rhand -31.0654 -29.6573 0
rfingers 7.12502 0 0
rthumb -4.34631 -59.5921 0
22
root 7.69671 15.8524 -33.8871 6.98567 -6.50465 -6.4828
lfemur -39.9429 -0.593828 -5.44684
ltibia 18.8231 0 0
lfoot -15.8239 17.1276 0
ltoes -11.5377 0 0
rfemur 11.4239 7.44976 31.7724
rtibia 4.74924 0 0
rfoot -15.6364 -1.45884 0
rtoes -10.7807 0 0
lowerback -6.44224 1.73559 3.28125
upperback -1.11672 2.00018 2.9933
thorax 2.46799 1.01254 1.41729
lowerneck -19.8745 -4.79392 -11.5556
upperneck 15.8524 -6.33128 14.9403
head 9.13967 -2.14917 6.24901
lclavicle -9.75285e-16 -1.72943e-14 0
lhumerus -40.9987 -9.10234 90.2177
lradius 28.4876 0 0
lwrist 6.35891 0 0
lhand -8.16827 -22.8638 0
lfingers 7.12502 0 0
lthumb 17.7469 6.34549 0
rclavicle -9.75285e-16 -1.72943e-14 0
rhumerus -42.1499 19.5299 -90.3036
rradius 62.6236 0 0
rwrist -34.2806 0 0
rhand -30.886 -29.862 0
rfingers 7.12502 0 0
rthumb -4.17308 -59.8002 0
